<?xml version="1.0" encoding="utf-8"?>
<!-- Generator: Adobe Illustrator 19.0.0, SVG Export Plug-In . SVG Version: 6.00 Build 0)  -->
<svg version="1.1" id="Layer_1" xmlns="http://www.w3.org/2000/svg" xmlns:xlink="http://www.w3.org/1999/xlink" x="0px" y="0px"
	 width="206px" height="341px" viewBox="0 0 206 341" style="enable-background:new 0 0 206 341;" xml:space="preserve">
<style type="text/css">
	.st0{fill:#E57825;}
	.st1{fill:#9CCB3B;}
	.st2{fill:#FFFFFF;}
</style>
<g id="XMLID_1_">
	<path id="XMLID_48_" class="st0" d="M143.5,118.6c0.1,0.3,0.2,0.5,0.2,0.8c0.1-0.3,0.3-0.5,0.4-0.8c-0.1-0.6-0.2-1.3-0.2-1.9
		c-0.6,0.1-1.3,0.2-1.9,0.2c-1.9,0.1-3.6-0.3-5.2-1c-0.2,0.6-0.5,1.3-0.6,1.8c0.6,0,1.1,0,1.7,0.1c-12.2,22.2-24.1,42.9-32.1,69.8
		c-3.1,10.6-5.4,23.4-9.6,32.9c-0.6,1.8,1.4,6.3-1.6,5.6c1.5-31.5,5.6-63.4,1.6-93.9c1-1.4,2.7-2.1,4.2-3c-0.3-0.6-0.6-1.1-0.8-1.8
		c-0.8-2.2-1.2-4.4-1.2-6.6c-0.8,1-1.6,2.1-2.3,3.3c-2-2.3-1.8-6.8-2.4-10.4c1.6-0.8,3.1-1.6,4.5-2.2c-0.2-0.8-0.3-1.6-0.4-2.4
		c0.4,3.6-0.1-0.4-0.3-1.1c-0.1-0.3-0.1-0.6-0.2-0.9c-1.4,1.5-2.8,2.9-4.4,4.2c-0.7-8.1-3.4-14.3-4.8-21.7c2,1.5,4.7,2.2,6.9,3.5
		c-0.2-2.8-0.2-5.5,0-8.3c-0.1-0.6-0.2-1.2-0.4-1.8c-1.9,0.9-5.8-0.2-8.2,0.3c-3.3-6.8-6.1-14.2-8.8-21.7
		c6.1,1.4,4.8,14.4,11.2,12.8c1,3.6,1.5,7.6,5.6,8c-0.5-2.5-1.1-4.9-1.9-7.3c-0.1-0.2-0.2-0.4-0.3-0.7c-0.3-0.7-0.7-1.4-1-2.1
		c-0.8-1.6-1.7-3.2-2.6-4.8c-1.7-3-3.6-6-5.1-9.2c-0.9-2-1.8-4.1-2.6-6.2c-0.2-0.5-0.4-1-0.6-1.5c-0.3-0.6-0.7-1.2-1-1.9
		c-0.5-0.2-1.1-0.5-1.4-0.5c-0.4-0.1-1-0.2-1.5-0.3c-0.1,0-0.2,0-0.2,0c-0.4,0-0.9,0.1-1.4,0.1c-0.2,0.1-0.5,0.1-0.7,0.2
		c-0.4,0.3-1.1,0.6-1.5,0.8c-0.5,0.5-1,1-1.4,1.5c-0.5,0.9-1.3,1.8-1.8,2.7c-0.5,0.8-1,1.7-1.4,2.6c-0.1,0.5-0.6,1.6-0.8,2
		c-0.2,0.7-0.4,1.5-0.6,2.2c-0.2,0.7-0.3,1.4-0.5,2.1c-0.1,1.3-0.1,2.7,0,4c0,0.2,0.1,0.4,0.1,0.6c0,0.1,0,0.2,0.1,0.2
		c0.6,0.9,1.2,2.3,1.6,3c0.6,0.9,1.1,1.8,1.5,2.7c1.7-2.1,2.7-4.8,2.5-8.8c22.1,42.2,19,105.5,12,162.9c-1.2-1.2-2.8-2.3-4.6-3
		c0.5,0.7,1,1.4,1.3,2.2c0,0,0.1,0,0.1,0.1c0.3,0,1.5,0.5,1.8,0.6c0.7,0.2,1,0.3,1,0.4c1.2,0,2.6-0.1,3.2-0.1c3.2,0,6.4,0,9.6-0.1
		c0.5,0,1.1-0.1,1.6-0.2c0-0.1,0.1-0.2,0.1-0.3c0.6-1.3,1.1-2.6,1.8-3.8c1.5-2.9,3.4-5.5,5.5-8.1c1-1.2,2.1-2.1,3.4-2.7
		c0-0.1,0-0.1,0-0.2C113.5,173.6,130.2,147.9,143.5,118.6z"/>
	<path id="XMLID_51_" class="st1" d="M140.9,229.1c-10.5-9.6-22.7,9.1-31.3,1.6c1.1-1.4-0.1-7.4,4.8-8.8c-1.7-2.5-4.5,0.8-7.2,0
		c0.2-4.1,1.2-7.3,4-8.8c-0.2-1.2-2.4-0.3-2.4-1.6c0-0.2,0-0.3,0.1-0.5c-3.6,4.2-9,7.1-11.6,12c-2.2,4.3-9.1,2.2-13,0.5
		c-0.1,1.1-0.3,2.1-0.4,3.2c-2.8-2.7-7.3-4.8-12-3.2c5.3,1.4,10.9,5.8,10.4,10.4c-0.9,2.7-3.4-6.2-3.2,0c-1.8-4.9-5.3-4.4-9.6-5.6
		c0.5,2.4,3.2,2.7,4,4.8c-1.7,1.4-5.3-2.1-9.6-0.8c2.5,2.3,7.4,2.2,7.2,7.2c-1.7-0.7-2.7-2.1-5.6-1.6c-0.1,2.8,2.8,2.5,4,4
		c-0.5,0.8-5.4-0.7-7.2,0.8c9.6,3.4,15.1,10.6,28.1,12c14.9,1.7,26.8-3.9,40.9-8c0.2-2.1-1.1-2.6-3.2-2.4c1.2-3.7,6.5-3.6,10.4-2.4
		c-0.4-3.6-4.4-7.9-8-5.6C129.7,232.9,135.5,229.2,140.9,229.1z"/>
	<g id="XMLID_3_">
		<path id="XMLID_41_" class="st1" d="M169.2,102.6c-1.9-0.5,4.6-3.6,0-4.8c3.1-0.9,9.4,1.8,14.4,1.6c1.3-0.2,1-1.8,0.3-2.7
			c-0.4-0.1-0.8-0.3-1.1-0.5c0.4-0.1,0.8,0.1,1.1,0.5c4.3,1.6,13.4,1.2,14.2-5.3c-13,0.9-38.1-8-44.1,8
			c-0.8-15.2-8.8-23.3-16.8-31.3c-0.9,0.7-2.2,1.1-4,0.8c-3.1-8.1-7-15.5-16-17.7c2.5-2.6,8.9-1.3,13.6-1.6c2.4-0.3,1.6-3.8,3.2-4.8
			c8.8,6.1,19.3,0.4,24.1-6.4c-16.8,3.5-40.5-8.2-57.8-1.6c-0.4-2.7,4.6-6-0.8-8.8c1.4-2.4,4.3,0.5,6.4,0c2.8-3.4,6-6.3,10.4-8
			c-0.5-2.1-1.3-4.1-2.4-5.6c9.4,1.9,17.2-6.7,17.7-13.6h-2.4C115.9,7,99.9,9.4,89,18.3c-3.2,2.6-6,6.6-10.4,6.4
			c6-6,8-12.2,12.8-20.1c-12.7,6.6-29,13.7-26.5,32.9C55.3,14,23.7,24,0.7,28.7c5.8,5.7,24,6.3,32.1,2.4c1.3,1.6-4.4,3-4.8,5.6
			c6.1,0.8,9.9,4,12.8,8c3.1-0.9,6.5-1.5,8-4c1.5,2.4-6.3,4.6-5.6,6.4c-25.6-2.3-33,13.6-39.3,30.5c7.3-2.9,13.5-6.9,15.2-15.2
			c1.9,0.7,2.1,3.2,2.4,5.6c2.3-1.2,6.2-0.8,8.8-1.6c-6.2,9.1-9.1,21.3-12,33.7c2.6-2.5,12.4-4.7,10.4-14.4c2.3-0.9,5.7-0.7,8-1.6
			c0.7-9.6,5-6.5,11.2-11.2c-7.1,7.6-2.2,27.2-8,36.1c6.8-1.5,10.2-6.4,10.4-14.4c0.9,1.2,2.3,2,2.4,4c6-2.2,8.5-9.6,4.8-15.2
			c3.3,0.6,4.1-1.2,7.2-0.8c0.1-3.3,0.2-6.6-0.8-8.8c-0.4-3.3,2.8,0.6,4,0.8c2.5-2.3,4.3-5.3,4-10.4c0.1,0.2,0.2,0.3,0.3,0.5
			c0.1-1.1,0.7-2.2,1.8-2.3c0.7-0.1,1.3-0.4,1.9-0.6c0.6-0.2,1.2-0.1,1.7,0.1c0,0,0-0.1,0-0.1c6.1,1.4,4.8,14.4,11.2,12.8
			c1,3.8,1.6,8.1,6.4,8c-1.4,1.8-6.1,0.3-8.8,0.8c-0.1-0.1-0.1-0.3-0.2-0.4c0,0.4-0.1,0.7,0,1.1c0.1,1.2,0.4,2.3,0.5,3.5
			c0,0.1,0,0.1,0,0.1c0.1,0.3,0.1,0.7,0.2,1c0,0.1,0.1,0.3,0.1,0.4c0.5,0.4,0.8,0.9,1.1,1.4c0-0.2-0.1-0.4-0.1-0.6
			c2.6,2,6.5,2.6,8.8,4.8c2.6-0.3,1.6-4.3,4.8-4c-0.6,2.5,1.4,2.4,0.8,4.8c3.5-0.6,4.5,1.4,8,0.8c-8,3-11.5,10.4-17.7,15.2
			c0,0,0-0.1,0-0.1c0,0.1-0.1,0.2-0.1,0.3c0.1,0.4,0.2,1,0.4,1.4c0.2,0.3,0.3,0.7,0.5,1c0-0.1,0-0.1,0-0.2c8-4.1,13.1-6,21.7-8
			c-6.8,5.8-14.6,10.6-19.3,18.5c0,0,0,0,0-0.1c0,1.1-0.1,2.2-0.2,3.3c0,0.4-0.4,1.6-0.2,2c0.4,0.8,0.6,1.6,0.6,2.3
			c0.1,0,0.1,0.1,0.2,0.1c2.6-2.8,8.1-2.7,6.9-9.3c4.1,5.2,13.5-0.1,14.4-7.2c0.9,1.2,2.3,2,2.4,4c5.3-1.2,10.8-2,17.7-1.6l5.6,0.8
			c2,6.8,3.5,14.1,9.6,16.9c-2.5,10.4,3.3,18.3,8.8,23.3c1.8-10.1,2.3-29.4-2.4-36.1c3.4-0.8,3.4-0.8,3.2,3.2
			c5.3,0.9,7.9,7.7,13.6,5.6c1.3,5.4,6,7.4,11.2,8.8c-3.7-8.8-10-22.1-20.1-27.3c4-1.9,11.5-0.3,16.8-0.8c2.3-0.8-0.2-3.4,0-4.8
			c3.1-0.5,2,3.3,4,4c7.5,0.3,12.7-1.7,16.8-4.8C193.6,108.2,182.8,96.7,169.2,102.6z M34.4,61.6c0.8-1.1,0.8-3,1.6-4
			C39,58.2,37,62,34.4,61.6z M133.6,88.1c-7.4-3.3-17.6-8.6-31-5.6c-3.9-5.2-6.4-11.8-9.6-17.7c2.7-0.8,8.4,2.3,12,3.2
			c2.4-2-0.6-5.2,0-8c7.2,4,11.6,10.9,16,17.7c1.9,0.3,1.7-1.5,4-0.8c-0.1,1.5-2.7,0.6-2.4,2.4c2.8,1.5,5.3,7.5,8.8,5.6
			C131.6,85.7,132.2,87.1,133.6,88.1c0.6,0.3,1.3,0.6,1.9,0.8C134.7,88.7,134.1,88.4,133.6,88.1z"/>
	</g>
</g>
<path id="XMLID_22_" class="st2" d="M75.2,295.9c2.6,0.8,4.7,1.2,6.5,1.2c4.5,0,6.7-2.4,6.7-7.3c0-3.9-1.2-7.1-3.7-9.5
	c-2.4-2.4-5.6-3.7-9.5-3.7c-0.1,2.7-0.2,5.7-0.2,9.1C75.1,288.8,75.1,292.2,75.2,295.9 M68.4,300.8c0.5-5.1,0.8-11.1,0.8-18
	c0-2.1,0-4.2-0.1-6.5c-1.8,0-3.6,0.2-5.6,0.5c-0.1-0.1-0.1-0.3-0.3-0.5l5.4-4.8c1.7-0.3,3.5-0.4,5.4-0.4c5.4,0,9.9,1.1,13.5,3.2
	c4.4,2.6,6.6,6.4,6.6,11.3c0,3.8-1.9,7.4-5.7,11c-4.3,4-8.1,6-11.5,6C75.2,302.6,72.3,302,68.4,300.8z"/>
<path id="XMLID_15_" class="st2" d="M96.9,276.2c0.3-0.5,1.5-1.9,3.9-4.1c3-3,5.8-4.4,8.3-4.4c1.1,0,2.2,0.4,3.2,1.1
	c1.1,0.8,1.7,1.7,1.7,2.8c0,1.6-1.7,3.5-5.1,5.6c-1,0.6-2.3,1.4-3.9,2.3l-0.6-0.9c2.3-1.4,3.5-2.7,3.5-3.9c0-0.7-0.3-1.4-0.9-1.9
	c-0.6-0.5-1.3-0.8-2.1-0.8c-0.6,0-1.2,0.3-1.9,1c-0.5,0.5-0.8,1.2-1.1,1.9c0,5.4,0,9.4-0.1,11.9c-0.1,3.3,0,5.6,0.4,6.9
	c0.7,2.7,2.2,4.1,4.6,4.1c1.3,0,2.3-0.5,3-1.4c0.7-0.8,1-1.9,1-3.2c0-1.9-0.5-3.7-1.5-5.4c-1.2-1.9-2.7-2.8-4.5-2.8
	c-0.3,0-0.6,0-1,0.1l-0.3-0.6c1.7-1.2,2.8-1.8,3.1-2.1c1.3-0.8,2.5-1.1,3.4-1.1c1.8,0,3.3,0.9,4.5,2.7c1,1.6,1.5,3.3,1.5,5.3
	c-0.1,2.4-1.3,4.8-3.7,7.3c-3.7,3.9-6.8,5.8-9.3,5.8c-4.5,0-6.8-3.4-6.8-10.1c0-0.8,0-2.2-0.1-4.1c-0.1-1.8-0.1-3.2-0.1-4.1
	C95.9,280.1,96.2,277.6,96.9,276.2"/>
<path id="XMLID_14_" class="st2" d="M133.3,297.1l-3,2.6c-1.9,1.7-3.8,2.6-5.5,2.6c-2.1,0-4-1-5.8-3c-1.7-2-2.6-4.1-2.6-6.2
	c0-2.8,1.2-5.3,3.6-7.7c2.9-3,5.6-4.5,8.1-4.5c1.2,0,2.3,0.4,3.4,1.1c1.1,0.8,1.7,1.8,1.7,3c0,1.5-2.1,3.6-6.2,6.1l-2.7,1.7
	l-0.6-0.9c2.2-1.4,3.3-2.7,3.3-4c0-0.7-0.3-1.3-1-1.9c-0.7-0.5-1.4-0.8-2.1-0.8c-1.9,0-2.8,1.2-2.8,3.7c0,2.1,0.8,4,2.4,5.7
	c1.6,1.8,3.4,2.8,5.5,2.8c1.1,0,2.3-0.4,3.5-1.1L133.3,297.1z"/>
<path id="XMLID_13_" class="st2" d="M32.1,335.1c0.4-5.7,0.6-10.9,0.6-15.5c0-3.4-0.1-6.5-0.3-9.5c-1.6-0.1-3.3-0.3-5-0.6l-0.1-0.4
	c1.7-1.2,3.5-2.6,5.5-4.2c2.6,0.4,5.7,0.6,9.4,0.6c4,0,8-0.2,12-0.7c1.2-0.1,1.9,0.5,2.2,1.8c0.1,0.3,0.1,1.4,0.1,3.4v21.6l-6,3.9
	c-0.1-0.1-0.2-0.2-0.3-0.3c0.4-6.8,0.5-11.4,0.5-13.8c0-3.7-0.2-6.8-0.6-9.3c-0.2-1-0.4-1.7-0.8-2.1c-1,0.3-2.9,0.5-5.7,0.5
	c3,0,1.3,0-5.3,0c0,11.4,0,18.4,0.1,21.1l-6,3.8C32.4,335.2,32.3,335.1,32.1,335.1"/>
<path id="XMLID_12_" class="st2" d="M77.7,335.6c-1.2-3-2.5-5.2-3.9-6.7c-1.9-2-4.2-3-6.9-3c-0.7,0-1.4,0.1-1.9,0.4
	c-0.7,0.3-1.1,0.8-1.1,1.5c0,1,0.7,1.8,2,2.4c1.1,0.5,2.2,0.8,3.3,0.8c1.2,0,2.2-0.3,3.1-0.8l0.6,0.7c-3.2,3.1-5.9,4.7-8.3,4.7
	c-1.3,0-2.6-0.4-3.8-1.3c-1.3-0.9-1.9-2-1.9-3.3c0-2.1,1.4-4,4.3-5.6c2.1-1.2,4.5-2,7.2-2.4c-1.5-2.9-3-4.3-4.7-4.3
	c-0.5,0-1,0.2-1.6,0.5l-0.5-0.8c0.7-0.6,1.8-1.4,3.3-2.6c1.5-1.1,2.6-1.7,3.5-1.7c2.2,0,6.4,6,12.4,18L77.7,335.6z"/>
<path id="XMLID_11_" class="st2" d="M89,336l-4.6,4.2c-0.2,0.1-0.3,0.1-0.4,0.1c-0.6,0-1-0.8-1-2.5c0-1.8,0.3-3.7,0.9-5.9
	c0.6-2.1,1.3-3.9,2.2-5.5c1.4-2.6,3-5,5-7.2c3-3.5,5.7-5.3,8-5.3c2.1,0,3.7,5.3,4.8,16l0.2,1.7l-5.8,3.7l-0.1-1.3
	c-0.9-9.4-2-14-3.2-13.8c-2.3,0.4-4.2,1.9-5.6,4.5c-1.2,2.3-1.9,4.7-1.9,7.2C87.3,334.2,87.9,335.6,89,336"/>
<path id="XMLID_10_" class="st2" d="M113.6,329.8c0.6,1.8,1.6,2.8,3.2,2.8c1,0,1.8-0.3,2.4-0.9c0.6-0.6,0.9-1.4,0.9-2.3
	c0-1.3-0.4-2.6-1.1-3.7c-0.8-1.3-1.8-1.9-3.1-1.9c-0.2,0-0.5,0-0.7,0.1l-0.2-0.5c2.1-1.4,3.5-2.1,4.3-2.1c1.2,0,2.2,0.6,3,1.8
	c0.7,1.1,1.1,2.2,1.1,3.5c0,1.6-0.8,3.2-2.3,4.8c-2.4,2.6-4.4,3.9-6,3.9c-2.8,0-4.7-1-5.7-2.9c-0.7-1.4-1.1-3.6-1.1-6.7v-3.3
	c0.1-2.1-0.4-3.1-1.5-3.1c-0.5,0-1,0.1-1.7,0.4l-0.1-0.9l3.3-2.6c1.6-1.2,2.8-1.9,3.5-1.9c0.7,0,1.1,1.5,1.1,4.5
	c0,1.3,0,3.2,0.1,5.8C113.2,327.4,113.4,329.2,113.6,329.8"/>
<path id="XMLID_9_" class="st2" d="M129.7,335.8l-4.4,4.2c-0.1,0.1-0.3,0.1-0.4,0.1c-0.6,0-0.9-0.8-0.9-2.5s0.3-3.6,0.8-5.8
	c0.5-2.1,1.2-4,2-5.5c1.3-2.5,2.9-4.8,4.7-7.2c2.9-3.5,5.4-5.3,7.5-5.3c1,0,1.7,0.6,2.1,1.8c0.5,1.4,0.9,4.5,1.5,9.5l3.1-4.7
	c2.9-4.3,5.2-6.5,6.8-6.5c1.4,0,2.2,2.7,2.7,8c0.1,2.1,0.3,5.3,0.6,9.5l-5.1,3.7c0-1.6-0.1-4.1-0.2-7.3c-0.2-4.1-0.8-6.1-1.9-6.1
	c-2.5,0-5.6,4.5-9.2,13.5l-1.3,0c-0.1-2.9-0.3-5.8-0.6-8.6c-0.6-4.4-1.4-6.6-2.4-6.4c-2.2,0.4-4,1.9-5.3,4.5
	c-1.2,2.2-1.7,4.6-1.7,7.2C128.1,334.1,128.6,335.4,129.7,335.8"/>
<path id="XMLID_8_" class="st2" d="M166.4,329.7c0.6,1.9,1.7,2.8,3.3,2.8c1.1,0,2-0.4,2.7-1.1c0.5-0.5,0.7-1.2,0.7-2.1
	c0-1.3-0.4-2.6-1.1-3.7c-0.8-1.3-1.8-2-3.1-2c-0.2,0-0.5,0-0.7,0.1l-0.2-0.5c1.9-1.2,5.3-3.5,10.4-6.9c1.7-1.1,2.8-1.7,3.3-1.7
	c1.4,0,2.1,3.5,2.1,10.6c0,1.7,0,3.8,0,6.4l-5.8,3.7l0.2-7.3c0-2.6-0.2-4.8-0.6-6.6c-0.3-1.2-0.8-1.8-1.6-1.8c-0.2,0-0.4,0-0.6,0.1
	c-0.1,0-0.9,0.5-2.5,1.4c1,0.3,1.9,0.9,2.5,2.1c0.6,1,0.9,2.1,0.9,3.2c0,1.6-0.8,3.2-2.3,4.9c-2.4,2.6-4.4,3.9-6.1,3.9
	c-2.8,0-4.8-1-5.8-3c-0.7-1.4-1.1-3.7-1.1-6.8c0-1.8,0-2.9,0-3.3c0.1-2.1-0.4-3.2-1.6-3.2c-0.4,0-1,0.2-1.7,0.5l-0.1-0.9
	c0.8-0.6,1.9-1.5,3.4-2.7c1.7-1.2,2.9-1.9,3.6-1.9c0.7,0,1.1,1.5,1.2,4.5c0,1.3,0,3.3,0.1,5.9C166,327.3,166.2,329.1,166.4,329.7"/>
</svg>
